<svg width="30" height="30" viewBox="0 0 30 30" fill="none" xmlns="http://www.w3.org/2000/svg">
<g clip-path="url(#clip0)">
<path d="M14.8188 0.00370016C14.8067 0.00370016 14.8019 0.00370016 14.797 0.00370016C14.7873 0.00370016 14.7873 0.00370016 14.7849 0.00370016C14.7849 0.00370016 14.7849 0.00370016 14.7813 0.00370016C14.7776 0.00370016 14.7728 0.00370016 14.7679 0.00370016C14.7655 0.00370016 14.7655 0.00370016 14.7655 0.00370016C14.7655 0.00370016 14.7655 0.00370016 14.7607 0.00370016C14.728 -0.00357051 14.7183 0.0012766 14.694 0.0012766C10.8127 0.0012766 7.0368 1.54024 4.24607 4.24614L1.17785 1.13065C1.0288 0.985241 0.803407 0.939193 0.619217 1.01675C0.426544 1.09915 0.298096 1.28334 0.298096 1.49419V11.6101C0.298096 11.8949 0.529545 12.1251 0.810678 12.1251H10.803C10.8091 12.1251 10.82 12.1251 10.8272 12.1251C11.1108 12.1251 11.341 11.8961 11.341 11.6101C11.341 11.4211 11.238 11.2539 11.0841 11.1654L8.05348 8.09838C9.85055 6.36311 12.1953 5.41308 14.7667 5.41308C20.0137 5.44701 24.2877 9.74276 24.2877 15.077C24.2477 20.3192 19.9495 24.5858 14.6177 24.5858L14.6298 30.0001H14.7037C22.9184 30.0001 29.6486 23.3135 29.7019 15.0031C29.7019 6.79329 23.0323 0.0727715 14.8188 0.00370016Z" fill="#27AE60"/>
</g>
<defs>
<clipPath id="clip0">
<rect width="30" height="30" fill="white"/>
</clipPath>
</defs>
</svg>
