<svg width="38" height="38" viewBox="0 0 38 38" fill="none" xmlns="http://www.w3.org/2000/svg">
<g filter="url(#filter0_d)">
<path d="M28.4286 10.4504H24.4726V14.9998H19.9232V18.9559H24.4726V23.5053H28.4286V18.9559H32.9781V14.9998H28.4286V10.4504Z" fill="#27AE60"/>
<path d="M17.9451 13.0219H22.4945V8.47242H30.4066V13.0219H32.701C33.5231 11.7032 34 10.2082 34 8.56935C34 4.0013 30.2976 0.297392 25.7305 0.297392C22.9555 0.297392 20.5 1.66427 19 3.76183C17.5 1.66421 15.0445 0.296799 12.2695 0.296799C7.7024 0.296799 4 3.99985 4 8.56796C4 10.5538 4.69969 12.3758 5.86587 13.8015L19 29.7033L22.4945 25.4723V20.934H17.9451V13.0219Z" fill="#27AE60"/>
</g>
<defs>
<filter id="filter0_d" x="0" y="0" width="38" height="38" filterUnits="userSpaceOnUse" color-interpolation-filters="sRGB">
<feFlood flood-opacity="0" result="BackgroundImageFix"/>
<feColorMatrix in="SourceAlpha" type="matrix" values="0 0 0 0 0 0 0 0 0 0 0 0 0 0 0 0 0 0 127 0"/>
<feOffset dy="4"/>
<feGaussianBlur stdDeviation="2"/>
<feColorMatrix type="matrix" values="0 0 0 0 0 0 0 0 0 0 0 0 0 0 0 0 0 0 0.25 0"/>
<feBlend mode="normal" in2="BackgroundImageFix" result="effect1_dropShadow"/>
<feBlend mode="normal" in="SourceGraphic" in2="effect1_dropShadow" result="shape"/>
</filter>
</defs>
</svg>
